<svg width="155" height="126" viewBox="0 0 155 126" fill="none" xmlns="http://www.w3.org/2000/svg">
<path d="M38.5791 87V74.2031H42.5166C43.6416 74.2031 44.6465 74.458 45.5312 74.9678C46.4219 75.4717 47.1162 76.1924 47.6143 77.1299C48.1123 78.0615 48.3613 79.1221 48.3613 80.3115V80.9004C48.3613 82.0898 48.1152 83.1475 47.623 84.0732C47.1367 84.999 46.4482 85.7168 45.5576 86.2266C44.667 86.7363 43.6621 86.9941 42.543 87H38.5791ZM41.2158 76.3389V84.8818H42.4902C43.5215 84.8818 44.3096 84.5449 44.8545 83.8711C45.3994 83.1973 45.6777 82.2334 45.6895 80.9795V80.3027C45.6895 79.002 45.4199 78.0176 44.8809 77.3496C44.3418 76.6758 43.5537 76.3389 42.5166 76.3389H41.2158ZM53.0898 87H50.4531V74.2031H53.0898V87ZM62.9248 84.3633H58.3018L57.4229 87H54.6191L59.3828 74.2031H61.8262L66.6162 87H63.8125L62.9248 84.3633ZM59.0137 82.2275H62.2129L60.6045 77.4375L59.0137 82.2275ZM77.7432 85.3828C77.2686 85.9512 76.5977 86.3936 75.7305 86.71C74.8633 87.0205 73.9023 87.1758 72.8477 87.1758C71.7402 87.1758 70.7676 86.9355 69.9297 86.4551C69.0977 85.9688 68.4531 85.2656 67.9961 84.3457C67.5449 83.4258 67.3135 82.3447 67.3018 81.1025V80.2324C67.3018 78.9551 67.5156 77.8506 67.9434 76.9189C68.377 75.9814 68.998 75.2666 69.8066 74.7744C70.6211 74.2764 71.5732 74.0273 72.6631 74.0273C74.1807 74.0273 75.3672 74.3906 76.2227 75.1172C77.0781 75.8379 77.585 76.8896 77.7432 78.2725H75.1768C75.0596 77.54 74.7988 77.0039 74.3945 76.6641C73.9961 76.3242 73.4453 76.1543 72.7422 76.1543C71.8457 76.1543 71.1631 76.4912 70.6943 77.165C70.2256 77.8389 69.9883 78.8408 69.9824 80.1709V80.9883C69.9824 82.3301 70.2373 83.3438 70.7471 84.0293C71.2568 84.7148 72.0039 85.0576 72.9883 85.0576C73.9785 85.0576 74.6846 84.8467 75.1064 84.4248V82.2188H72.707V80.2764H77.7432V85.3828ZM90.2939 87H87.6572L82.5244 78.5801V87H79.8877V74.2031H82.5244L87.666 82.6406V74.2031H90.2939V87ZM103.108 80.8916C103.108 82.1514 102.886 83.2559 102.44 84.2051C101.995 85.1543 101.356 85.8867 100.524 86.4023C99.6982 86.918 98.749 87.1758 97.6768 87.1758C96.6162 87.1758 95.6699 86.9209 94.8379 86.4111C94.0059 85.9014 93.3613 85.1748 92.9043 84.2314C92.4473 83.2822 92.2158 82.1924 92.21 80.9619V80.3291C92.21 79.0693 92.4355 77.9619 92.8867 77.0068C93.3438 76.0459 93.9854 75.3105 94.8115 74.8008C95.6436 74.2852 96.5928 74.0273 97.6592 74.0273C98.7256 74.0273 99.6719 74.2852 100.498 74.8008C101.33 75.3105 101.972 76.0459 102.423 77.0068C102.88 77.9619 103.108 79.0664 103.108 80.3203V80.8916ZM100.437 80.3115C100.437 78.9697 100.196 77.9502 99.7158 77.2529C99.2354 76.5557 98.5498 76.207 97.6592 76.207C96.7744 76.207 96.0918 76.5527 95.6113 77.2441C95.1309 77.9297 94.8877 78.9375 94.8818 80.2676V80.8916C94.8818 82.1982 95.1221 83.2119 95.6025 83.9326C96.083 84.6533 96.7744 85.0137 97.6768 85.0137C98.5615 85.0137 99.2412 84.668 99.7158 83.9766C100.19 83.2793 100.431 82.2656 100.437 80.9355V80.3115ZM111.66 83.6426C111.66 83.1445 111.484 82.7637 111.133 82.5C110.781 82.2305 110.148 81.9492 109.234 81.6562C108.32 81.3574 107.597 81.0645 107.063 80.7773C105.61 79.9922 104.884 78.9346 104.884 77.6045C104.884 76.9131 105.077 76.2979 105.464 75.7588C105.856 75.2139 106.416 74.7891 107.143 74.4844C107.875 74.1797 108.695 74.0273 109.604 74.0273C110.518 74.0273 111.332 74.1943 112.047 74.5283C112.762 74.8564 113.315 75.3223 113.708 75.9258C114.106 76.5293 114.306 77.2148 114.306 77.9824H111.669C111.669 77.3965 111.484 76.9424 111.115 76.6201C110.746 76.292 110.228 76.1279 109.56 76.1279C108.915 76.1279 108.414 76.2656 108.057 76.541C107.699 76.8105 107.521 77.168 107.521 77.6133C107.521 78.0293 107.729 78.3779 108.145 78.6592C108.566 78.9404 109.185 79.2041 109.999 79.4502C111.499 79.9014 112.592 80.4609 113.277 81.1289C113.963 81.7969 114.306 82.6289 114.306 83.625C114.306 84.7324 113.887 85.6025 113.049 86.2354C112.211 86.8623 111.083 87.1758 109.665 87.1758C108.681 87.1758 107.784 86.9971 106.976 86.6396C106.167 86.2764 105.549 85.7812 105.121 85.1543C104.699 84.5273 104.488 83.8008 104.488 82.9746H107.134C107.134 84.3867 107.978 85.0928 109.665 85.0928C110.292 85.0928 110.781 84.9668 111.133 84.7148C111.484 84.457 111.66 84.0996 111.66 83.6426ZM123.798 81.4541H118.735V84.8818H124.677V87H116.099V74.2031H124.659V76.3389H118.735V79.3887H123.798V81.4541ZM62.6172 104.555C62.6172 103.963 62.7812 103.415 63.1094 102.911C63.4434 102.407 64.0527 101.848 64.9375 101.232C64.5566 100.723 64.2578 100.245 64.041 99.7998C63.8242 99.3486 63.7158 98.8799 63.7158 98.3936C63.7158 97.3975 64.0293 96.5889 64.6562 95.9678C65.2891 95.3408 66.1387 95.0273 67.2051 95.0273C68.1602 95.0273 68.9424 95.3115 69.5518 95.8799C70.167 96.4482 70.4746 97.1572 70.4746 98.0068C70.4746 99.0264 69.959 99.9258 68.9277 100.705L67.9434 101.417L70.1494 103.983C70.4951 103.304 70.668 102.554 70.668 101.733H72.8301C72.8301 103.397 72.4463 104.745 71.6787 105.776L73.5947 108H70.7119L70.0527 107.244C69.1094 107.865 68.0254 108.176 66.8008 108.176C65.5352 108.176 64.5215 107.845 63.7598 107.183C62.998 106.515 62.6172 105.639 62.6172 104.555ZM66.9238 106.137C67.5332 106.137 68.1104 105.967 68.6553 105.627L66.1328 102.709L65.9482 102.841C65.4268 103.286 65.166 103.811 65.166 104.414C65.166 104.924 65.3271 105.34 65.6494 105.662C65.9775 105.979 66.4023 106.137 66.9238 106.137ZM65.9922 98.3584C65.9922 98.7979 66.25 99.3516 66.7656 100.02L67.4424 99.5713C67.7881 99.3486 68.0254 99.1318 68.1543 98.9209C68.2891 98.71 68.3564 98.458 68.3564 98.165C68.3564 97.8721 68.248 97.6172 68.0312 97.4004C67.8145 97.1836 67.5361 97.0752 67.1963 97.0752C66.833 97.0752 66.54 97.1924 66.3174 97.4268C66.1006 97.6611 65.9922 97.9717 65.9922 98.3584ZM87.1299 102.771H82.0674V108H79.4307V95.2031H87.7627V97.3389H82.0674V100.644H87.1299V102.771ZM92.0957 108H89.459V95.2031H92.0957V108ZM99.2852 99.6152L101.685 95.2031H104.717L100.99 101.549L104.813 108H101.746L99.2852 103.518L96.8242 108H93.7568L97.5801 101.549L93.8535 95.2031H96.8857L99.2852 99.6152Z" fill="black"/>
<g clip-path="url(#clip0)">
<path fill-rule="evenodd" clip-rule="evenodd" d="M48 4.0625L52.0625 0L64.5791 8.9375C65.1061 9.31376 65.5356 9.81057 65.8317 10.3865C66.1278 10.9625 66.282 11.6008 66.2812 12.2484V12.5328C66.2808 13.0669 66.3857 13.5959 66.59 14.0895C66.7942 14.583 67.0938 15.0314 67.4716 15.4091L90.6562 38.5938L94.3694 37.3547C95.0851 37.1166 95.8529 37.0825 96.587 37.2561C97.321 37.4297 97.9921 37.8043 98.5253 38.3378L112.159 51.9716C112.921 52.7334 113.349 53.7665 113.349 54.8438C113.349 55.921 112.921 56.9541 112.159 57.7159L105.716 64.1591C104.954 64.9207 103.921 65.3485 102.844 65.3485C101.767 65.3485 100.733 64.9207 99.9716 64.1591L86.3378 50.5253C85.8043 49.9921 85.4297 49.321 85.2561 48.587C85.0825 47.8529 85.1166 47.0851 85.3547 46.3694L86.5938 42.6562L63.4091 19.4716C62.6474 18.7096 61.6142 18.2815 60.5369 18.2812H60.2484C59.6015 18.2813 58.964 18.1269 58.3888 17.8308C57.8136 17.5347 57.3174 17.1056 56.9416 16.5791L48 4.0625ZM94.1256 43.2494C93.7442 42.868 93.2269 42.6537 92.6875 42.6537C92.1481 42.6537 91.6308 42.868 91.2494 43.2494C90.868 43.6308 90.6537 44.1481 90.6537 44.6875C90.6537 45.2269 90.868 45.7442 91.2494 46.1256L103.437 58.3131C103.818 58.6945 104.336 58.9088 104.875 58.9088C105.414 58.9088 105.932 58.6945 106.313 58.3131C106.695 57.9317 106.909 57.4144 106.909 56.875C106.909 56.3356 106.695 55.8183 106.313 55.4369L94.1256 43.2494Z" fill="black"/>
<path fill-rule="evenodd" clip-rule="evenodd" d="M112.586 9.03014C113.137 11.0981 113.135 13.2746 112.579 15.3413C112.023 17.4079 110.933 19.2919 109.419 20.8042C107.904 22.3164 106.019 23.4037 103.951 23.9569C101.884 24.5101 99.7076 24.5097 97.6404 23.9558L71.88 49.3586C72.6478 51.957 72.5277 54.7372 71.5389 57.2598C70.5501 59.7824 68.7488 61.9036 66.4198 63.2881C64.0908 64.6726 61.3668 65.2416 58.6783 64.905C55.9898 64.5685 53.4901 63.3457 51.5742 61.4298C49.6583 59.5139 48.4354 57.0142 48.0989 54.3257C47.7624 51.6372 48.3313 48.9132 49.7159 46.5842C51.1004 44.2551 53.2215 42.4539 55.7441 41.465C58.2667 40.4762 61.0469 40.3562 63.6454 41.1239L89.0441 15.3636C88.4832 13.2948 88.4778 11.1146 89.0285 9.04303C89.5793 6.97146 90.6666 5.08179 92.1809 3.56466C93.6951 2.04752 95.5827 0.956586 97.6532 0.401919C99.7237 -0.152748 101.904 -0.151528 103.974 0.405457L95.2719 9.10733L96.7507 16.2492L103.888 17.728L112.586 9.03014ZM58.2707 45.6698L60.1922 44.6867L62.1057 45.6698L64.2547 45.7755L65.4207 47.5833L67.2285 48.7492L67.3341 50.8983L68.3132 52.8117L67.33 54.7251L67.2244 56.8742L65.4166 58.0401L64.2507 59.848L62.1016 59.9536L60.1882 60.9367L58.2747 59.9536L56.1257 59.848L54.9597 58.0401L53.1519 56.8742L53.0463 54.7251L52.0632 52.8117L53.0463 50.8983L53.1519 48.7492L54.9597 47.5833L56.1257 45.7755L58.2747 45.6698H58.2707Z" fill="#1E7BE2"/>
</g>
<defs>
<clipPath id="clip0">
<rect width="65" height="65" fill="white" transform="translate(48)"/>
</clipPath>
</defs>
</svg>
