<svg width="136" height="126" viewBox="0 0 136 126" fill="none" xmlns="http://www.w3.org/2000/svg">
<path d="M87.25 6.25H71.625C71.625 7.96875 70.2188 9.375 68.5 9.375C66.7812 9.375 65.375 7.96875 65.375 6.25H49.75C46.3125 6.25 43.5 9.0625 43.5 12.5V62.5C43.5 65.9375 46.3125 68.75 49.75 68.75H87.25C90.6875 68.75 93.5 65.9375 93.5 62.5V12.5C93.5 9.0625 90.6875 6.25 87.25 6.25Z" fill="#455A64"/>
<path d="M87.25 64.0625H49.75C48.8125 64.0625 48.1875 63.4375 48.1875 62.5V12.5C48.1875 11.5625 48.8125 10.9375 49.75 10.9375H87.25C88.1875 10.9375 88.8125 11.5625 88.8125 12.5V62.5C88.8125 63.4375 88.1875 64.0625 87.25 64.0625Z" fill="white"/>
<path d="M71.625 6.25C71.625 7.96875 70.2188 9.375 68.5 9.375C66.7812 9.375 65.375 7.96875 65.375 6.25H54.4375V12.5C54.4375 14.2188 55.8438 15.625 57.5625 15.625H79.4375C81.1562 15.625 82.5625 14.2188 82.5625 12.5V6.25H71.625Z" fill="#90A4AE"/>
<path d="M68.5 0C65.0625 0 62.25 2.8125 62.25 6.25C62.25 9.6875 65.0625 12.5 68.5 12.5C71.9375 12.5 74.75 9.6875 74.75 6.25C74.75 2.8125 71.9375 0 68.5 0ZM68.5 9.375C66.7812 9.375 65.375 7.96875 65.375 6.25C65.375 4.53125 66.7812 3.125 68.5 3.125C70.2188 3.125 71.625 4.53125 71.625 6.25C71.625 7.96875 70.2188 9.375 68.5 9.375Z" fill="#90A4AE"/>
<path d="M78.8125 29.0625L64.75 43.125L58.1875 36.4062L54.2813 40.3125L64.9063 50.7812L82.7188 32.9688L78.8125 29.0625Z" fill="#1E7BE2"/>
<path d="M4.20898 96.4912V101H1.57227V88.2031H6.56445C7.52539 88.2031 8.36914 88.3789 9.0957 88.7305C9.82812 89.082 10.3906 89.583 10.7832 90.2334C11.1758 90.8779 11.3721 91.6133 11.3721 92.4395C11.3721 93.6934 10.9414 94.6836 10.0801 95.4102C9.22461 96.1309 8.03809 96.4912 6.52051 96.4912H4.20898ZM4.20898 94.3555H6.56445C7.26172 94.3555 7.79199 94.1914 8.15527 93.8633C8.52441 93.5352 8.70898 93.0664 8.70898 92.457C8.70898 91.8301 8.52441 91.3232 8.15527 90.9365C7.78613 90.5498 7.27637 90.3506 6.62598 90.3389H4.20898V94.3555ZM17.9287 96.3154H15.8281V101H13.1914V88.2031H17.9463C19.458 88.2031 20.624 88.54 21.4443 89.2139C22.2646 89.8877 22.6748 90.8398 22.6748 92.0703C22.6748 92.9434 22.4844 93.6729 22.1035 94.2588C21.7285 94.8389 21.1572 95.3018 20.3896 95.6475L23.1582 100.877V101H20.3281L17.9287 96.3154ZM15.8281 94.1797H17.9551C18.6172 94.1797 19.1299 94.0127 19.4932 93.6787C19.8564 93.3389 20.0381 92.873 20.0381 92.2812C20.0381 91.6777 19.8652 91.2031 19.5195 90.8574C19.1797 90.5117 18.6553 90.3389 17.9463 90.3389H15.8281V94.1797ZM32.3867 95.4541H27.3242V98.8818H33.2656V101H24.6875V88.2031H33.248V90.3389H27.3242V93.3887H32.3867V95.4541ZM41.9316 96.4912V101H39.2949V88.2031H44.2871C45.248 88.2031 46.0918 88.3789 46.8184 88.7305C47.5508 89.082 48.1133 89.583 48.5059 90.2334C48.8984 90.8779 49.0947 91.6133 49.0947 92.4395C49.0947 93.6934 48.6641 94.6836 47.8027 95.4102C46.9473 96.1309 45.7607 96.4912 44.2432 96.4912H41.9316ZM41.9316 94.3555H44.2871C44.9844 94.3555 45.5146 94.1914 45.8779 93.8633C46.2471 93.5352 46.4316 93.0664 46.4316 92.457C46.4316 91.8301 46.2471 91.3232 45.8779 90.9365C45.5088 90.5498 44.999 90.3506 44.3486 90.3389H41.9316V94.3555ZM60.5996 88.2031V96.6318C60.5996 98.0322 60.1602 99.1396 59.2812 99.9541C58.4082 100.769 57.2129 101.176 55.6953 101.176C54.2012 101.176 53.0146 100.78 52.1357 99.9893C51.2568 99.1982 50.8086 98.1113 50.791 96.7285V88.2031H53.4277V96.6494C53.4277 97.4873 53.627 98.0996 54.0254 98.4863C54.4297 98.8672 54.9863 99.0576 55.6953 99.0576C57.1777 99.0576 57.9307 98.2783 57.9541 96.7197V88.2031H60.5996ZM67.499 96.3154H65.3984V101H62.7617V88.2031H67.5166C69.0283 88.2031 70.1943 88.54 71.0146 89.2139C71.835 89.8877 72.2451 90.8398 72.2451 92.0703C72.2451 92.9434 72.0547 93.6729 71.6738 94.2588C71.2988 94.8389 70.7275 95.3018 69.96 95.6475L72.7285 100.877V101H69.8984L67.499 96.3154ZM65.3984 94.1797H67.5254C68.1875 94.1797 68.7002 94.0127 69.0635 93.6787C69.4268 93.3389 69.6084 92.873 69.6084 92.2812C69.6084 91.6777 69.4355 91.2031 69.0898 90.8574C68.75 90.5117 68.2256 90.3389 67.5166 90.3389H65.3984V94.1797ZM84.3037 96.7373C84.2041 98.1143 83.6943 99.1982 82.7744 99.9893C81.8604 100.78 80.6533 101.176 79.1533 101.176C77.5127 101.176 76.2207 100.625 75.2773 99.5234C74.3398 98.416 73.8711 96.8984 73.8711 94.9707V94.1885C73.8711 92.958 74.0879 91.874 74.5215 90.9365C74.9551 89.999 75.5732 89.2812 76.376 88.7832C77.1846 88.2793 78.1221 88.0273 79.1885 88.0273C80.665 88.0273 81.8545 88.4229 82.7568 89.2139C83.6592 90.0049 84.1807 91.1152 84.3213 92.5449H81.6846C81.6201 91.7188 81.3887 91.1211 80.9902 90.752C80.5977 90.377 79.9971 90.1895 79.1885 90.1895C78.3096 90.1895 77.6504 90.5059 77.2109 91.1387C76.7773 91.7656 76.5547 92.7412 76.543 94.0654V95.0322C76.543 96.415 76.751 97.4258 77.167 98.0645C77.5889 98.7031 78.251 99.0225 79.1533 99.0225C79.9678 99.0225 80.5742 98.8379 80.9727 98.4688C81.377 98.0938 81.6084 97.5166 81.667 96.7373H84.3037ZM96.4502 101H93.8135V95.5156H88.6719V101H86.0352V88.2031H88.6719V93.3887H93.8135V88.2031H96.4502V101ZM106.145 98.3633H101.521L100.643 101H97.8389L102.603 88.2031H105.046L109.836 101H107.032L106.145 98.3633ZM102.233 96.2275H105.433L103.824 91.4375L102.233 96.2275ZM117.667 97.6426C117.667 97.1445 117.491 96.7637 117.14 96.5C116.788 96.2305 116.155 95.9492 115.241 95.6562C114.327 95.3574 113.604 95.0645 113.07 94.7773C111.617 93.9922 110.891 92.9346 110.891 91.6045C110.891 90.9131 111.084 90.2979 111.471 89.7588C111.863 89.2139 112.423 88.7891 113.149 88.4844C113.882 88.1797 114.702 88.0273 115.61 88.0273C116.524 88.0273 117.339 88.1943 118.054 88.5283C118.769 88.8564 119.322 89.3223 119.715 89.9258C120.113 90.5293 120.312 91.2148 120.312 91.9824H117.676C117.676 91.3965 117.491 90.9424 117.122 90.6201C116.753 90.292 116.234 90.1279 115.566 90.1279C114.922 90.1279 114.421 90.2656 114.063 90.541C113.706 90.8105 113.527 91.168 113.527 91.6133C113.527 92.0293 113.735 92.3779 114.151 92.6592C114.573 92.9404 115.191 93.2041 116.006 93.4502C117.506 93.9014 118.599 94.4609 119.284 95.1289C119.97 95.7969 120.312 96.6289 120.312 97.625C120.312 98.7324 119.894 99.6025 119.056 100.235C118.218 100.862 117.09 101.176 115.672 101.176C114.688 101.176 113.791 100.997 112.982 100.64C112.174 100.276 111.556 99.7812 111.128 99.1543C110.706 98.5273 110.495 97.8008 110.495 96.9746H113.141C113.141 98.3867 113.984 99.0928 115.672 99.0928C116.299 99.0928 116.788 98.9668 117.14 98.7148C117.491 98.457 117.667 98.0996 117.667 97.6426ZM129.805 95.4541H124.742V98.8818H130.684V101H122.105V88.2031H130.666V90.3389H124.742V93.3887H129.805V95.4541ZM20.0293 122H17.3926V109.203H20.0293V122ZM32.8877 122H30.251L25.1182 113.58V122H22.4814V109.203H25.1182L30.2598 117.641V109.203H32.8877V122ZM41.8262 118.643C41.8262 118.145 41.6504 117.764 41.2988 117.5C40.9473 117.23 40.3145 116.949 39.4004 116.656C38.4863 116.357 37.7627 116.064 37.2295 115.777C35.7764 114.992 35.0498 113.935 35.0498 112.604C35.0498 111.913 35.2432 111.298 35.6299 110.759C36.0225 110.214 36.582 109.789 37.3086 109.484C38.041 109.18 38.8613 109.027 39.7695 109.027C40.6836 109.027 41.498 109.194 42.2129 109.528C42.9277 109.856 43.4814 110.322 43.874 110.926C44.2725 111.529 44.4717 112.215 44.4717 112.982H41.835C41.835 112.396 41.6504 111.942 41.2812 111.62C40.9121 111.292 40.3936 111.128 39.7256 111.128C39.0811 111.128 38.5801 111.266 38.2227 111.541C37.8652 111.811 37.6865 112.168 37.6865 112.613C37.6865 113.029 37.8945 113.378 38.3105 113.659C38.7324 113.94 39.3506 114.204 40.165 114.45C41.665 114.901 42.7578 115.461 43.4434 116.129C44.1289 116.797 44.4717 117.629 44.4717 118.625C44.4717 119.732 44.0527 120.603 43.2148 121.235C42.377 121.862 41.249 122.176 39.8311 122.176C38.8467 122.176 37.9502 121.997 37.1416 121.64C36.333 121.276 35.7148 120.781 35.2871 120.154C34.8652 119.527 34.6543 118.801 34.6543 117.975H37.2998C37.2998 119.387 38.1436 120.093 39.8311 120.093C40.458 120.093 40.9473 119.967 41.2988 119.715C41.6504 119.457 41.8262 119.1 41.8262 118.643ZM48.9014 117.491V122H46.2646V109.203H51.2568C52.2178 109.203 53.0615 109.379 53.7881 109.73C54.5205 110.082 55.083 110.583 55.4756 111.233C55.8682 111.878 56.0645 112.613 56.0645 113.439C56.0645 114.693 55.6338 115.684 54.7725 116.41C53.917 117.131 52.7305 117.491 51.2129 117.491H48.9014ZM48.9014 115.355H51.2568C51.9541 115.355 52.4844 115.191 52.8477 114.863C53.2168 114.535 53.4014 114.066 53.4014 113.457C53.4014 112.83 53.2168 112.323 52.8477 111.937C52.4785 111.55 51.9688 111.351 51.3184 111.339H48.9014V115.355ZM65.583 116.454H60.5205V119.882H66.4619V122H57.8838V109.203H66.4443V111.339H60.5205V114.389H65.583V116.454ZM78.0547 117.737C77.9551 119.114 77.4453 120.198 76.5254 120.989C75.6113 121.78 74.4043 122.176 72.9043 122.176C71.2637 122.176 69.9717 121.625 69.0283 120.523C68.0908 119.416 67.6221 117.898 67.6221 115.971V115.188C67.6221 113.958 67.8389 112.874 68.2725 111.937C68.7061 110.999 69.3242 110.281 70.127 109.783C70.9355 109.279 71.873 109.027 72.9395 109.027C74.416 109.027 75.6055 109.423 76.5078 110.214C77.4102 111.005 77.9316 112.115 78.0723 113.545H75.4355C75.3711 112.719 75.1396 112.121 74.7412 111.752C74.3486 111.377 73.748 111.189 72.9395 111.189C72.0605 111.189 71.4014 111.506 70.9619 112.139C70.5283 112.766 70.3057 113.741 70.2939 115.065V116.032C70.2939 117.415 70.502 118.426 70.918 119.064C71.3398 119.703 72.002 120.022 72.9043 120.022C73.7188 120.022 74.3252 119.838 74.7236 119.469C75.1279 119.094 75.3594 118.517 75.418 117.737H78.0547ZM89.1553 111.339H85.2354V122H82.5986V111.339H78.7314V109.203H89.1553V111.339ZM93.4707 122H90.834V109.203H93.4707V122ZM106.435 115.892C106.435 117.151 106.212 118.256 105.767 119.205C105.321 120.154 104.683 120.887 103.851 121.402C103.024 121.918 102.075 122.176 101.003 122.176C99.9424 122.176 98.9961 121.921 98.1641 121.411C97.332 120.901 96.6875 120.175 96.2305 119.231C95.7734 118.282 95.542 117.192 95.5361 115.962V115.329C95.5361 114.069 95.7617 112.962 96.2129 112.007C96.6699 111.046 97.3115 110.311 98.1377 109.801C98.9697 109.285 99.9189 109.027 100.985 109.027C102.052 109.027 102.998 109.285 103.824 109.801C104.656 110.311 105.298 111.046 105.749 112.007C106.206 112.962 106.435 114.066 106.435 115.32V115.892ZM103.763 115.312C103.763 113.97 103.522 112.95 103.042 112.253C102.562 111.556 101.876 111.207 100.985 111.207C100.101 111.207 99.418 111.553 98.9375 112.244C98.457 112.93 98.2139 113.938 98.208 115.268V115.892C98.208 117.198 98.4482 118.212 98.9287 118.933C99.4092 119.653 100.101 120.014 101.003 120.014C101.888 120.014 102.567 119.668 103.042 118.977C103.517 118.279 103.757 117.266 103.763 115.936V115.312ZM118.757 122H116.12L110.987 113.58V122H108.351V109.203H110.987L116.129 117.641V109.203H118.757V122Z" fill="black"/>
</svg>
