<svg width="90" height="26" viewBox="0 0 90 26" fill="none" xmlns="http://www.w3.org/2000/svg">
<path d="M20.3672 18.2324L23.5254 1.53906H28.3433L23.1387 25H18.2725L14.4536 9.30566L10.6348 25H5.76855L0.563965 1.53906H5.38184L8.55615 18.2002L12.4233 1.53906H16.5161L20.3672 18.2324ZM38.1724 25.3223C35.6157 25.3223 33.5317 24.5381 31.9204 22.9697C30.3198 21.4014 29.5195 19.312 29.5195 16.7017V16.2505C29.5195 14.4995 29.8579 12.9365 30.5347 11.5615C31.2114 10.1758 32.1675 9.1123 33.4028 8.37109C34.6489 7.61914 36.0669 7.24316 37.6567 7.24316C40.0415 7.24316 41.916 7.99512 43.2803 9.49902C44.6553 11.0029 45.3428 13.1353 45.3428 15.896V17.7974H34.2407C34.3911 18.936 34.8423 19.8491 35.5942 20.5366C36.3569 21.2241 37.3184 21.5679 38.4785 21.5679C40.2725 21.5679 41.6743 20.918 42.6841 19.6182L44.9722 22.1802C44.2739 23.1685 43.3286 23.9419 42.1362 24.5005C40.9438 25.0483 39.6226 25.3223 38.1724 25.3223ZM37.6406 11.0137C36.7168 11.0137 35.9648 11.3252 35.3848 11.9482C34.8154 12.5713 34.4502 13.4629 34.2891 14.623H40.7666V14.2524C40.7451 13.2212 40.4658 12.4263 39.9287 11.8677C39.3916 11.2983 38.6289 11.0137 37.6406 11.0137Z" fill="white"/>
<path d="M62.4229 15.4126H53.1416V25H48.3076V1.53906H63.583V5.45459H53.1416V11.5132H62.4229V15.4126ZM70.9951 25H66.3223V7.56543H70.9951V25ZM66.0483 3.05371C66.0483 2.35547 66.2793 1.78076 66.7412 1.32959C67.2139 0.878418 67.853 0.652832 68.6587 0.652832C69.4536 0.652832 70.0874 0.878418 70.5601 1.32959C71.0327 1.78076 71.269 2.35547 71.269 3.05371C71.269 3.7627 71.0273 4.34277 70.5439 4.79395C70.0713 5.24512 69.4429 5.4707 68.6587 5.4707C67.8745 5.4707 67.2407 5.24512 66.7573 4.79395C66.2847 4.34277 66.0483 3.7627 66.0483 3.05371ZM81.4849 12.77L84.4175 7.56543H89.3965L84.4336 16.1055L89.606 25H84.6108L81.501 19.5215L78.4072 25H73.396L78.5684 16.1055L73.6216 7.56543H78.6167L81.4849 12.77Z" fill="#1E55E2"/>
</svg>
